<?xml version="1.0" standalone="no"?>
<!DOCTYPE svg PUBLIC "-//W3C//DTD SVG 20010904//EN"
 "http://www.w3.org/TR/2001/REC-SVG-20010904/DTD/svg10.dtd">
<svg version="1.0" xmlns="http://www.w3.org/2000/svg"
 width="942.000000pt" height="942.000000pt" viewBox="0 0 942.000000 942.000000"
 preserveAspectRatio="xMidYMid meet">
<metadata>
Created by potrace 1.11, written by Peter Selinger 2001-2013
</metadata>
<g transform="translate(0.000000,942.000000) scale(0.100000,-0.100000)"
fill="#000000" stroke="none">
<path d="M2060 9089 c0 -4 -23 -31 -51 -61 -28 -29 -65 -69 -83 -88 -18 -19
-53 -52 -80 -74 -26 -21 -59 -57 -73 -80 -24 -39 -69 -86 -82 -86 -3 0 -12
-12 -18 -27 -7 -16 -29 -39 -48 -52 -20 -13 -47 -43 -61 -67 -14 -23 -31 -45
-39 -48 -8 -3 -25 -22 -39 -43 -13 -21 -38 -54 -56 -73 -26 -30 -196 -269
-225 -318 -11 -19 -32 -51 -82 -129 -18 -28 -33 -57 -33 -65 0 -7 -7 -26 -16
-43 -44 -84 -97 -235 -114 -330 -11 -58 -25 -125 -31 -148 -24 -82 -45 -204
-64 -367 -8 -74 -20 -164 -26 -200 -6 -36 -13 -85 -15 -110 -2 -25 -9 -72 -14
-105 -5 -33 -12 -100 -15 -150 -3 -49 -8 -119 -10 -155 -2 -36 -8 -119 -12
-185 -16 -245 -8 -1156 11 -1265 2 -14 7 -70 11 -125 3 -55 8 -113 10 -130 2
-16 7 -68 10 -115 9 -125 17 -204 21 -211 4 -7 10 -44 19 -124 12 -111 27
-216 46 -330 43 -257 48 -285 58 -303 10 -19 36 -153 46 -241 4 -29 16 -81 26
-115 11 -33 23 -91 26 -128 6 -66 5 -68 -18 -69 -13 -1 -35 -3 -49 -4 -14 -2
-124 -6 -245 -10 -120 -4 -226 -8 -235 -10 -8 -1 -34 -6 -57 -10 -49 -8 -51
-10 -58 -58 -8 -46 21 -79 114 -135 39 -23 72 -42 75 -42 2 0 27 -16 56 -35
29 -19 57 -35 62 -35 17 0 133 -86 182 -136 74 -74 68 -88 -83 -201 -171 -128
-231 -181 -384 -335 -130 -132 -177 -194 -177 -236 0 -24 68 -89 100 -96 14
-3 57 -7 95 -10 160 -12 225 -16 310 -21 113 -7 270 -32 304 -48 17 -8 27 -22
29 -40 3 -23 -7 -38 -57 -85 -34 -31 -128 -122 -209 -202 -126 -124 -164 -168
-214 -246 -4 -6 6 -30 23 -54 l30 -42 72 7 c164 14 300 27 319 30 11 2 65 9
121 16 56 6 113 13 127 15 180 26 972 22 1280 -6 58 -5 134 -11 170 -14 36 -3
85 -10 110 -16 65 -14 326 -58 385 -64 144 -15 170 -18 175 -21 3 -2 26 -6 50
-10 71 -10 231 -44 243 -51 29 -16 59 -51 74 -84 104 -234 184 -349 294 -426
128 -89 231 -130 354 -143 33 -3 182 -6 330 -6 219 0 285 4 350 18 89 19 215
65 215 79 0 4 7 8 15 8 14 0 85 61 172 150 41 41 82 116 160 290 41 90 90 124
205 139 35 5 99 16 143 25 156 30 397 67 543 81 176 18 222 24 231 29 28 18
1027 37 1106 22 11 -2 61 -7 110 -10 50 -4 110 -9 135 -11 25 -2 86 -7 135
-10 50 -4 151 -15 225 -26 234 -34 302 -28 317 29 13 52 -93 190 -274 357
-154 142 -213 201 -213 213 0 36 159 77 340 87 58 3 134 8 170 10 36 3 103 7
148 10 103 7 138 23 162 78 26 57 25 60 -178 275 -104 111 -237 228 -351 307
-98 69 -151 117 -151 137 0 10 7 29 15 42 16 23 127 116 140 116 4 0 30 15 58
33 93 60 111 71 160 95 69 35 152 118 160 161 12 61 -3 67 -201 75 -70 4 -183
9 -252 13 -69 3 -135 5 -147 5 -12 -1 -34 3 -49 8 -26 10 -26 12 -20 73 4 34
16 88 27 119 10 32 19 75 19 98 0 22 11 81 24 132 13 51 27 127 31 168 4 41
13 102 20 135 7 33 16 85 20 115 3 30 8 71 10 90 28 231 35 296 40 360 4 41 8
85 10 97 2 12 6 68 10 125 3 57 8 112 10 123 26 135 27 1456 1 1605 -3 14 -10
75 -16 135 -6 61 -13 126 -15 145 -2 19 -6 69 -10 110 -4 41 -8 86 -10 100 -2
14 -6 54 -10 90 -7 64 -49 331 -60 380 -3 14 -17 77 -30 140 -29 141 -94 354
-136 445 -38 82 -148 286 -171 318 -13 17 -39 56 -57 86 -32 53 -147 199 -256
326 -29 33 -56 67 -61 76 -5 9 -43 54 -84 100 -105 115 -114 125 -217 233 -50
53 -106 117 -125 141 -23 31 -43 46 -65 51 -46 9 -97 -3 -118 -26 -10 -11 -23
-20 -29 -20 -6 0 -21 -15 -33 -32 -12 -17 -41 -52 -63 -77 -23 -25 -57 -66
-75 -91 -41 -54 -99 -126 -157 -197 -94 -113 -166 -205 -224 -285 -64 -87
-239 -380 -316 -529 -25 -47 -52 -96 -61 -110 -9 -13 -17 -31 -17 -39 0 -9
-20 -57 -43 -106 -65 -132 -154 -409 -172 -532 -11 -73 -43 -184 -58 -199 -16
-16 -294 -18 -927 -8 -140 2 -505 5 -810 6 -305 1 -570 6 -588 11 -42 11 -57
45 -71 154 -6 43 -21 113 -35 154 -13 41 -41 129 -61 195 -20 66 -45 136 -56
156 -10 20 -30 67 -43 104 -14 36 -45 103 -69 148 -104 195 -119 223 -133 238
-8 8 -14 22 -14 31 0 28 -281 452 -379 571 -31 38 -66 82 -77 98 -12 16 -37
47 -55 67 -19 21 -56 67 -83 102 -44 57 -126 155 -193 230 -13 14 -23 28 -23
32 0 3 -7 14 -16 23 -12 12 -34 15 -95 14 -43 -2 -79 -6 -79 -10z"/>
</g>
</svg>
