<?xml version="1.0" encoding="UTF-8"?>
<!DOCTYPE svg PUBLIC "-//W3C//DTD SVG 1.1//EN" "http://www.w3.org/Graphics/SVG/1.1/DTD/svg11.dtd">
<svg version="1.1" xmlns="http://www.w3.org/2000/svg" xmlns:xlink="http://www.w3.org/1999/xlink" x="0" y="0" width="308" height="75" viewBox="0, 0, 308, 75">
  <g id="Layer_1">
    <g>
      <g>
        <path d="M88.009,13.807 C88.009,28.104 88.009,45.927 88.009,60.429 C88.009,63.247 89.181,65.966 92.281,65.966 C95.131,65.966 96.389,63.451 96.389,60.727 C96.389,58.815 96.389,56.702 96.389,54.788 C96.389,53.98 97.478,53.98 98.986,53.98 C100.997,53.98 102.004,53.782 102.004,54.788 C102.004,56.802 102.004,59.015 102.004,60.929 C102.004,67.276 99.155,72.714 92.281,72.714 C85.746,72.714 82.561,66.37 82.561,61.033 C82.561,45.83 82.561,29.417 82.561,14.111 C82.561,8.673 85.746,2.226 92.281,2.226 C99.238,2.226 102.004,9.777 102.004,14.111 C102.004,15.421 102.004,17.132 102.004,18.644 C102.004,19.647 100.746,19.75 99.238,19.75 C97.563,19.75 96.389,19.85 96.389,18.644 C96.389,17.232 96.389,15.316 96.389,13.909 C96.389,11.695 94.796,8.472 92.281,8.472 C89.684,8.471 88.009,11.488 88.009,13.807 z" fill="#000000"/>
        <path d="M109.019,72.829 C107.764,72.829 106.675,72.829 106.757,71.923 C109.355,45.745 111.618,26.412 113.963,3.753 C114.131,2.341 114.549,2.241 116.392,2.241 C118.488,2.241 119.159,2.341 119.327,4.052 C122.175,29.831 123.598,45.536 126.449,71.82 C126.535,72.928 126.114,72.828 123.852,72.828 C121.421,72.828 121.002,73.03 120.835,71.618 C120.166,65.981 119.66,60.944 118.989,55.409 C118.906,54.398 117.734,54.498 116.392,54.498 C114.799,54.498 113.963,54.396 113.88,55.409 C113.376,61.044 112.958,65.981 112.54,71.82 C112.455,72.931 111.701,72.829 109.019,72.829 z M116.477,48.967 C117.483,48.967 118.403,48.967 118.32,48.16 C117.734,39.5 117.483,33.962 116.981,26.006 C116.981,25.603 116.895,24.9 116.394,24.9 C115.974,24.9 115.891,25.603 115.891,25.906 C115.388,34.365 115.054,41.416 114.636,48.061 C114.549,48.762 115.305,48.967 116.477,48.967 z" fill="#000000"/>
        <path d="M137.401,71.102 C137.401,72.713 137.068,72.713 134.552,72.713 C132.626,72.713 132.04,72.713 132.04,71.303 C132.04,46.533 132.04,29.311 132.04,5.348 C132.04,4.34 132.125,3.234 132.626,2.628 C133.296,1.926 133.882,2.226 134.552,2.226 C136.315,2.226 137.568,2.226 139.331,2.226 C142.012,2.226 145.613,3.034 148.127,5.752 C150.643,8.569 151.229,12.701 151.229,16.222 C151.229,19.645 151.229,21.863 151.229,25.285 C151.229,27.704 151.313,29.416 150.306,31.63 C149.05,34.447 146.367,35.253 146.367,35.657 C146.367,36.058 149.129,36.665 150.389,39.682 C151.396,42.102 151.311,43.609 151.311,46.029 C151.311,54.79 151.311,62.341 151.311,71.102 C151.311,72.713 150.724,72.713 148.463,72.713 C146.531,72.713 145.946,72.814 145.946,71.303 C145.946,62.341 145.946,53.782 145.946,45.728 C145.946,41.595 143.685,39.08 141.838,39.08 C137.902,39.08 137.398,38.978 137.398,40.592 C137.401,49.955 137.401,60.228 137.401,71.102 z M139.581,8.871 C138.824,8.871 138.073,8.871 137.738,9.577 C137.484,10.183 137.484,10.685 137.484,11.289 C137.484,18.539 137.484,23.073 137.484,30.12 C137.484,31.228 137.318,32.334 137.99,32.937 C138.49,33.441 139.079,33.342 139.497,33.342 C140.417,33.342 142.596,33.035 144.105,31.128 C145.781,28.908 145.781,27.198 145.781,25.788 C145.781,22.163 145.781,19.847 145.781,16.222 C145.781,13.908 145.445,12.195 144.02,10.381 C143.101,9.377 142.598,8.871 139.581,8.871 z" fill="#000000"/>
        <path d="M163.502,13.807 C163.502,28.104 163.502,46.129 163.502,60.631 C163.502,63.149 164.426,66.166 167.776,66.166 C171.042,66.166 171.881,63.049 171.881,60.929 C171.881,55.294 171.881,50.052 171.881,43.607 C171.881,43.107 171.967,42.504 171.549,42.102 C170.959,41.595 169.201,41.902 168.362,41.902 C167.692,41.902 167.608,41.094 167.608,38.978 C167.608,36.765 167.692,35.857 168.276,35.857 C170.539,35.857 176.49,35.555 177.41,35.757 C177.746,35.857 177.496,36.565 177.496,36.967 C177.496,49.954 177.496,57.81 177.496,70.498 C177.496,71.204 177.581,72.007 177.075,72.613 C176.656,73.115 175.985,72.613 175.232,72.613 C174.563,72.613 174.897,70.396 173.722,69.49 C172.8,68.786 171.88,72.714 167.774,72.714 C160.65,72.714 158.051,65.667 158.051,61.033 C158.051,45.83 158.051,29.417 158.051,14.111 C158.051,10.183 160.233,2.226 167.774,2.226 C175.15,2.226 177.496,10.485 177.496,14.111 C177.496,15.421 177.496,17.332 177.496,18.644 C177.496,19.546 176.824,19.849 174.563,19.849 C172.467,19.849 171.966,19.748 171.966,18.841 C171.966,17.432 171.88,15.316 171.88,13.909 C171.88,11.695 170.288,8.472 167.774,8.472 C165.176,8.471 163.502,11.695 163.502,13.807 z" fill="#000000"/>
        <path d="M203.511,60.125 C203.511,66.67 201.246,72.713 193.792,72.713 C186.834,72.713 184.071,66.67 184.071,60.125 C184.071,44.921 184.071,29.516 184.071,14.512 C184.071,6.96 188.345,2.226 193.792,2.226 C199.32,2.226 203.511,7.464 203.511,14.512 C203.511,29.516 203.511,44.921 203.511,60.125 z M189.516,14.512 C189.516,29.01 189.516,45.224 189.516,59.826 C189.516,62.743 190.012,65.967 193.788,65.967 C197.136,65.967 197.977,62.643 197.977,59.826 C197.977,45.126 197.977,29.112 197.977,14.512 C197.977,11.695 196.218,8.471 193.788,8.471 C191.274,8.471 189.516,11.695 189.516,14.512 z" fill="#000000"/>
      </g>
      <path d="M225.439,15.897 L217.669,15.897 L221.002,2.241 L208.361,20.988 L216.231,20.988 L212.902,34.644 z" fill="#000000"/>
    </g>
  </g>
</svg>
